<svg aria-hidden="true" style="position:absolute;width:0;height:0;overflow:hidden" xmlns="http://www.w3.org/2000/svg"><defs><symbol id="icon-check-mark" viewBox="0 0 42 32"><path fill="#fff" style="fill:var(--color1, #fff);stroke:var(--color1, #fff)" stroke="#fff" stroke-width=".64" d="m6.26 15.2-.22-.2-3.3 3.13 11.65 11.11L38.86 5.9l-3.28-3.13-21.2 20.2-8.12-7.76z"/></symbol><symbol id="icon-human" viewBox="0 0 32 32"><path d="M16 16a8 8 0 1 0 0-16 8 8 0 0 0 0 16zm0 4c-5.34 0-16 2.68-16 8v2c0 1.1.9 2 2 2h28a2 2 0 0 0 2-2v-2c0-5.32-10.66-8-16-8z"/></symbol><symbol id="icon-tellephon" viewBox="0 0 32 32"><path d="m27.42 20.85-4.2-.48c-1.01-.11-2 .23-2.71.94l-3.05 3.05a24.89 24.89 0 0 1-10.9-10.9l3.06-3.06a3.3 3.3 0 0 0 .94-2.71l-.48-4.17A3.31 3.31 0 0 0 6.8.59H3.93A3.28 3.28 0 0 0 .63 4 28.1 28.1 0 0 0 26.9 30.3a3.28 3.28 0 0 0 3.43-3.31v-2.86a3.28 3.28 0 0 0-2.91-3.28z"/></symbol><symbol id="icon-mail" viewBox="0 0 43 32"><path d="M37.33 0h-32a4 4 0 0 0-3.98 4l-.02 24c0 2.2 1.8 4 4 4h32c2.2 0 4-1.8 4-4V4c0-2.2-1.8-4-4-4zm-.8 8.5L22.4 17.34c-.64.4-1.48.4-2.12 0L6.13 8.5a1.7 1.7 0 1 1 1.8-2.88L21.33 14l13.4-8.38a1.7 1.7 0 1 1 1.8 2.88z"/></symbol><symbol id="icon-square" viewBox="0 0 34 32"><path d="M30.34 3.56v24.88H3.8V3.57h26.55zm0-3.56H3.8C1.71 0 0 1.6 0 3.56v24.88C0 30.4 1.7 32 3.8 32h26.54c2.09 0 3.8-1.6 3.8-3.56V3.56c0-1.96-1.71-3.56-3.8-3.56z"/></symbol><symbol id="icon-cross" viewBox="0 0 32 32"><path d="M26.67 7.3 24.7 5.33l-7.81 7.81-7.8-7.8L7.1 7.3l7.8 7.81-7.8 7.8 1.97 1.98 7.8-7.8 7.82 7.8 1.97-1.97-7.81-7.8 7.8-7.82z"/></symbol></defs></svg>