<svg xmlns="http://www.w3.org/2000/svg" width="30" height="32"><path fill="#212121" d="m29.86 22.1-8.44-8.5.93-4.62a2.16 2.16 0 1 0-1.24-1.29l-4.96.6L8.05.16A.53.53 0 0 0 7.69 0a.53.53 0 0 0-.37.16L5.8 1.66c-.21.2-.21.55 0 .75l.8.83A14.94 14.94 0 0 0 9.14 20.9c.04.04.09.08.14.1-.03.18-.05.36-.05.55v6.18h-6.4A2.67 2.67 0 0 0 .16 30.4v1.07c0 .3.23.53.53.53h24.53c.3 0 .53-.24.53-.53V30.4c0-1.47-1.2-2.66-2.66-2.66h-6.4v-2.75a14.85 14.85 0 0 0 10.09-1.46l.81.82a.53.53 0 0 0 .75 0l1.52-1.5c.2-.2.2-.54 0-.75zm-7.5-15.87a1.07 1.07 0 1 1 .76 1.82 1.07 1.07 0 0 1-.75-1.82zm-1.25 3.5-.6 2.95-1.17-1.18 1.77-1.76zm-.6-.9-1.93 1.92-1.48-1.5 3.4-.41zm2.58 19.97c.88 0 1.6.72 1.6 1.6v.53H1.22v-.53c0-.88.72-1.6 1.6-1.6H23.1zm-7.47-2.13v1.06H10.3v-1.06h5.33zM10.3 25.6v-4.05c0-1.3 1.2-2.35 2.67-2.35s2.66 1.05 2.66 2.35v4.05H10.3zm6.4-1.7v-2.35c0-1.89-1.68-3.42-3.73-3.42a3.8 3.8 0 0 0-3.28 1.79A13.87 13.87 0 0 1 7.4 4.03L26 22.74a13.82 13.82 0 0 1-9.31 1.16zm11.29-.68L6.92 2.04l.76-.75 7.93 7.98h.01l13.12 13.2-.76.75z"/><path fill="#2196f3" d="M12.96 20.27a1.6 1.6 0 1 0 0 3.2 1.6 1.6 0 1 0 0-3.2zm.38 1.98c-.1.1-.24.15-.38.15a.53.53 0 0 1 0-1.07.53.53 0 0 1 .37.92z"/></svg>