<svg xmlns="http://www.w3.org/2000/svg" width="57" height="32"><path fill="#afb1b8" d="M20.27 3.73 24 7.27h-6.93v17.16H35.2v-6.56l3.73 3.53V3.73H20.27zm14.77 13.72L24.44 7.42h10.6v10.03zm-3.3 4.47h-11.8V10.38h.83v10.76h10.98v.78zm-9.01 4.8-.44.9-.44-.9h-.36l.63 1.2v.7h.34v-.7l.63-1.2h-.36zm.54 1.9.16-.45h.73l.16.44h.34l-.72-1.9h-.3l-.7 1.9h.33zm.52-1.5.28.79h-.55l.28-.79zm1.74.74a.43.43 0 0 0-.07.24c0 .16.05.3.17.4s.26.14.45.14.35-.05.48-.15l.1.12h.38l-.28-.32c.1-.15.16-.35.16-.58h-.27c0 .13-.03.24-.08.35l-.37-.43.13-.1c.1-.06.16-.13.2-.2s.06-.13.06-.21c0-.12-.05-.22-.14-.3s-.2-.13-.33-.13c-.16 0-.28.05-.37.13s-.13.2-.13.36c0 .06 0 .12.04.18s.08.15.15.24c-.14.1-.23.19-.28.26zm.86.42c-.1.07-.2.1-.3.1-.1 0-.17-.02-.23-.07s-.09-.13-.09-.22c0-.1.06-.19.16-.27l.04-.03.41.5zm-.34-.84c-.1-.1-.14-.2-.14-.27s.02-.12.06-.16.08-.06.14-.06c.06 0 .1.01.15.05s.05.08.05.13c0 .07-.03.13-.08.18l-.04.03-.14.1zm3.08 1.03c.13-.11.2-.27.23-.47h-.33c-.02.13-.06.23-.13.29s-.16.09-.29.09c-.14 0-.25-.06-.32-.17s-.11-.26-.11-.47v-.16c0-.2.04-.36.12-.46s.18-.16.33-.16c.12 0 .22.03.28.09s.1.16.12.3h.33c-.02-.21-.1-.37-.23-.49s-.3-.17-.5-.17c-.16 0-.3.04-.41.11s-.21.18-.27.32c-.07.13-.1.3-.1.47v.18c0 .17.04.32.1.46s.15.23.26.3c.12.07.25.11.4.11.22 0 .4-.06.52-.17zm1.94-.26c.06-.15.1-.3.1-.5v-.1c0-.18-.04-.35-.1-.48s-.16-.25-.28-.32c-.12-.08-.26-.12-.41-.12s-.3.04-.41.12c-.12.07-.21.18-.28.32s-.1.3-.1.49v.1c0 .19.04.35.1.49s.16.24.28.32c.12.07.26.11.41.11.16 0 .3-.04.41-.11s.21-.18.28-.32zm-.35-1.07c.08.1.12.27.12.48v.1c0 .21-.04.37-.12.48s-.2.17-.34.17-.26-.06-.34-.17-.12-.27-.12-.48v-.11c0-.2.04-.36.12-.47s.2-.17.34-.17.26.05.34.17z"/></svg>