<svg xmlns="http://www.w3.org/2000/svg" width="57" height="32"><path fill="#afb1b8" d="M26.73 3.17h-.08l-.33-.02h-.24a12.56 12.56 0 0 0-.7.02c-1.94.1-3.84.6-5.6 1.43l-.24.11v11.81l.54-.18a18.34 18.34 0 0 1 5.82-1.02v1.55l-.57.01h-.04A17.2 17.2 0 0 0 18 18.94V3.79c1.3-.75 2.7-1.32 4.15-1.69 1.28-.33 2.6-.5 3.91-.5h.23a11.19 11.19 0 0 1 2.74.35v1.53c-.62-.15-1.25-.24-1.89-.29h-.04l-.38-.02zm2.68 1.56a16.75 16.75 0 0 0 5.16-.49c1.38-.35 2.7-.87 3.96-1.55v14.88c-1.3.75-2.7 1.32-4.15 1.69-1.28.32-2.6.5-3.92.5-1 0-2-.11-2.96-.35V4.44a11.44 11.44 0 0 0 1.92.28zm7.57.11-.53.18a18.23 18.23 0 0 1-6.97 1l-.44-.03v12.15l.37.03a14.36 14.36 0 0 0 4.58-.41c.96-.24 1.88-.57 2.77-1l.23-.1V4.84zM19.06 24.11a.81.81 0 0 0-.6-.24.9.9 0 0 0-.35.07.8.8 0 0 0-.5.78v2.02c0 .15.02.29.08.42a.72.72 0 0 0 .48.41c.1.03.2.04.3.04a.86.86 0 0 0 .84-.85v-.22h-.53v.18l-.03.18a.32.32 0 0 1-.08.11.38.38 0 0 1-.22.08.27.27 0 0 1-.25-.11.48.48 0 0 1-.07-.27v-1.89c0-.1.02-.2.06-.3a.3.3 0 0 1 .26-.12c.05 0 .1 0 .13.02s.08.05.1.1c.07.07.1.16.1.26v.18h.52v-.2a.95.95 0 0 0-.24-.65zM22.2 24.09a.94.94 0 0 0-.92-.17c-.1.04-.2.1-.27.17a.82.82 0 0 0-.21.28.96.96 0 0 0-.08.4v1.94c0 .13.03.27.08.4.05.1.12.19.2.26.09.08.18.14.28.17a.91.91 0 0 0 .92-.17.85.85 0 0 0 .28-.66v-1.95a.94.94 0 0 0-.08-.39.87.87 0 0 0-.2-.28zm-.25 2.62a.36.36 0 0 1-.1.28.39.39 0 0 1-.5 0 .35.35 0 0 1-.1-.28v-1.95a.36.36 0 0 1 .1-.28.39.39 0 0 1 .5 0 .35.35 0 0 1 .1.29v1.94zM26.33 27.57V23.9h-.51l-.67 1.94-.68-1.94h-.5v3.67h.52v-2.23h.01l.51 1.58h.27l.51-1.58h.01v2.23h.53zM29.31 24.16a.73.73 0 0 0-.3-.2 1.17 1.17 0 0 0-.38-.06h-.78v3.67h.53v-1.43h.27c.16 0 .32-.03.47-.1a.87.87 0 0 0 .4-.6 2.54 2.54 0 0 0-.02-.95.78.78 0 0 0-.19-.33zm-.27 1.12c0 .06-.02.13-.05.19a.3.3 0 0 1-.13.13.54.54 0 0 1-.25.04h-.24V24.4h.27a.5.5 0 0 1 .24.05c.05.03.1.08.12.14.03.06.04.13.05.2v.5zM31.8 23.9h-.44l-.8 3.67h.52l.15-.79h.71l.16.8h.52l-.83-3.68zm-.5 2.38.27-1.33.26 1.33h-.52zM35.17 26.11l-.8-2.21h-.5v3.67h.52v-2.2h.01l.8 2.2h.5V23.9h-.53v2.21zM38.37 23.9l-.42 1.46h-.01l-.42-1.46h-.56l.72 2.12v1.55h.53v-1.55l.72-2.12h-.56zM17.6 28.61h.25v.7h.17v-.7h.25v-.14h-.67v.14zM19.72 28.46l-.33.86h.18l.07-.2h.34l.07.2h.2l-.35-.85h-.18zm-.03.52.12-.31.12.31h-.24zM21.82 29h.2v.11a.33.33 0 0 1-.2.08c-.04 0-.08 0-.1-.02l-.09-.07a.35.35 0 0 1-.06-.22c0-.19.08-.28.24-.28.05 0 .1 0 .13.03s.06.06.07.1l.17-.03c-.04-.17-.16-.25-.37-.25a.43.43 0 0 0-.3.1.41.41 0 0 0-.12.34c0 .11.04.23.11.32a.4.4 0 0 0 .33.12c.13 0 .26-.04.36-.13v-.34h-.37V29zM23.96 28.46h-.17v.86h.6v-.15h-.43v-.7zM25.77 28.46h-.17v.86h.17v-.85zM27.54 29.04l-.35-.57h-.17v.85h.16v-.56l.35.56h.17v-.85h-.16v.57zM29.14 28.94h.42v-.14h-.42v-.19h.46v-.14h-.63v.85h.65v-.15h-.48v-.23zM33.02 28.8h-.34v-.33h-.17v.85h.17v-.37h.34v.37h.17v-.85h-.17v.33zM34.63 28.94h.42v-.14h-.42v-.19h.46v-.14h-.63v.85h.64v-.15h-.47v-.23zM36.81 28.94c.15-.02.23-.1.23-.23a.2.2 0 0 0-.09-.2.48.48 0 0 0-.25-.04h-.36v.85h.17v-.36h.03c.04 0 .08 0 .11.02l.06.06.19.28h.2l-.1-.17a.6.6 0 0 0-.19-.2zm-.17-.12h-.13v-.2h.14c.06-.01.12 0 .17.01l.03.04.01.05-.01.05a.1.1 0 0 1-.04.03.49.49 0 0 1-.17.02zM38.46 28.94h.42v-.14h-.42v-.19h.46v-.14h-.63v.85h.64v-.15h-.47v-.23z"/></svg>