<svg xmlns="http://www.w3.org/2000/svg" width="57" height="32"><path fill="#afb1b8" d="M19.42 26.19h.02l.02.01.12.12a.95.95 0 0 1-.33.2c-.15.06-.3.09-.46.08-.15 0-.3-.02-.44-.07a.94.94 0 0 1-.33-.2.88.88 0 0 1-.21-.3 1.02 1.02 0 0 1-.07-.4.91.91 0 0 1 .3-.7c.1-.1.22-.16.35-.2a1.39 1.39 0 0 1 .87-.02c.11.05.22.1.3.18l-.09.12-.02.02a.07.07 0 0 1-.04.01l-.04-.01-.06-.03-.07-.04a.82.82 0 0 0-.23-.07 1.11 1.11 0 0 0-.5.04.68.68 0 0 0-.42.39c-.03.1-.05.2-.05.3 0 .11.02.22.06.32a.69.69 0 0 0 .4.39c.1.03.2.05.3.05l.18-.01a.69.69 0 0 0 .38-.17.09.09 0 0 1 .06-.02zM22.78 25.63c0 .13-.03.27-.08.4-.05.1-.12.21-.22.3s-.22.15-.35.2c-.28.1-.6.1-.88 0a1.03 1.03 0 0 1-.34-.2.9.9 0 0 1-.22-.31c-.1-.26-.1-.53 0-.79a.94.94 0 0 1 .22-.3c.1-.1.21-.16.34-.2.28-.1.6-.1.88 0a.91.91 0 0 1 .64.9zm-.31 0c0-.1-.02-.21-.06-.32a.65.65 0 0 0-.4-.38c-.2-.07-.43-.07-.64 0a.68.68 0 0 0-.25.15.63.63 0 0 0-.15.23.93.93 0 0 0 0 .64.64.64 0 0 0 .4.38c.2.07.43.07.64 0a.66.66 0 0 0 .4-.38c.04-.1.06-.21.06-.32zM25.07 25.96l.03.07.03-.07a.68.68 0 0 1 .04-.07l.74-1.17.04-.04a.2.2 0 0 1 .06 0h.22v1.9h-.26v-1.53l-.74 1.2-.05.04a.14.14 0 0 1-.06.01h-.04L25 26.3a.1.1 0 0 1-.04-.05l-.77-1.2V26.57h-.25v-1.9h.22a.2.2 0 0 1 .06 0l.04.04.76 1.18.04.07zM27.86 25.86v.72h-.29v-1.9h.65c.12 0 .25 0 .36.04.1.02.19.06.26.12a.5.5 0 0 1 .14.18c.04.08.06.16.05.25a.55.55 0 0 1-.2.43.75.75 0 0 1-.26.13c-.12.03-.24.04-.35.04h-.36zm0-.2h.36a.8.8 0 0 0 .22-.03.52.52 0 0 0 .16-.08.36.36 0 0 0 .13-.29c.01-.05 0-.1-.02-.15s-.06-.1-.1-.13a.62.62 0 0 0-.4-.1h-.35v.78zM31.77 26.58h-.23a.1.1 0 0 1-.06-.01.12.12 0 0 1-.04-.05l-.2-.46h-1l-.2.46a.1.1 0 0 1-.1.06h-.23l.87-1.9h.3l.9 1.9zm-1.44-.7h.82l-.34-.78a1.28 1.28 0 0 1-.07-.18l-.03.1a.98.98 0 0 1-.03.08l-.35.77zM33.03 24.68l.04.04 1.28 1.43v-1.48h.25v1.91h-.2a.16.16 0 0 1-.05-.04l-1.27-1.44v1.48h-.26v-1.9H33.03zM36.75 25.82v.76h-.3v-.76l-.8-1.15h.26c.03 0 .05 0 .07.02l.04.04.5.74a1.32 1.32 0 0 1 .09.17l.03-.08a.74.74 0 0 1 .05-.09l.5-.74a.18.18 0 0 1 .04-.04.1.1 0 0 1 .06-.02h.26l-.8 1.15zM24.92 21.47l.39.04c1.96-.77 3.62-2.02 4.77-3.6s1.74-3.4 1.7-5.28l-2.17-1.87c.44 1.98.24 4.04-.6 5.93s-2.24 3.55-4.09 4.78z"/><path fill="#afb1b8" d="m24.15 21.38.06.01c1.97-1.22 3.48-2.94 4.32-4.92s.98-4.13.4-6.18l-3.08-2.67c1.25 2.2 1.75 4.66 1.45 7.1s-1.4 4.74-3.15 6.66zM34.6 14.84a9.62 9.62 0 0 1-3.63 5.28c-.53.4-1.1.76-1.72 1.07 1.49-.38 2.86-1.05 4-1.97s2.03-2.04 2.6-3.3l-1.25-1.08z"/><path fill="#afb1b8" d="m34.1 14.54-1.77-1.55c-.04 1.77-.61 3.49-1.67 4.99s-2.56 2.73-4.35 3.56c.4 0 .8-.02 1.2-.06 1.67-.6 3.15-1.54 4.3-2.75s1.94-2.65 2.3-4.19zM24.4 6.49 22.3 4.64c-1.9.64-3.53 1.76-4.68 3.21a8 8 0 0 0-1.78 4.95c0 1.95.76 3.84 2.15 5.38s3.32 2.63 5.5 3.1c1.94-2.06 3.08-4.6 3.25-7.26s-.65-5.3-2.32-7.53zM39 14.26c0-2.32-1.06-4.54-2.95-6.18s-4.44-2.56-7.1-2.56c-1.23 0-2.45.2-3.6.58l12.99 11.28c.44-1 .67-2.05.67-3.13z"/></svg>