<svg xmlns="http://www.w3.org/2000/svg" width="57" height="32"><path fill="#afb1b8" d="M14.27 23.86c.13.15.2.33.2.52 0 .12-.02.25-.07.36s-.14.22-.24.3a1.4 1.4 0 0 1-.88.24h-1.55v-3.3h1.52c.3-.02.6.06.84.22a.7.7 0 0 1 .3.62c0 .18-.06.35-.18.5a.84.84 0 0 1-.46.26c.2.03.39.13.52.28zm-1.82-.5h.65c.15.01.3-.03.41-.11.05-.04.1-.09.12-.15s.03-.11.02-.17c0-.06 0-.12-.03-.18s-.06-.1-.1-.14a.67.67 0 0 0-.43-.11h-.64v.86zm1.13 1.27c.05-.04.1-.1.12-.15s.04-.13.03-.19c0-.06 0-.13-.03-.18s-.07-.12-.12-.16a.71.71 0 0 0-.44-.12h-.68v.91h.68c.16.01.31-.03.44-.11zM17.37 25.28l-.84-1.3h-.32v1.3h-.73v-3.3h1.38c.34-.03.69.07.95.28.2.18.31.41.33.66s-.06.5-.22.7c-.17.18-.4.3-.66.34l.9 1.32h-.79zm-1.16-1.74h.6c.4 0 .61-.17.61-.5a.46.46 0 0 0-.15-.37.69.69 0 0 0-.47-.14h-.6l.01 1zM21.34 24.61h-1.45l-.25.67h-.76L20.2 22h.83l1.32 3.27h-.76l-.25-.67zm-.2-.5-.52-1.39-.53 1.4h1.05zM26.3 25.28h-.72l-1.61-2.25v2.25h-.72v-3.3h.72l1.61 2.25v-2.25h.73v3.3zM30.42 24.49a1.5 1.5 0 0 1-.66.58c-.3.14-.66.22-1 .2h-1.3v-3.3h1.3c.34 0 .69.07 1 .2.28.14.5.34.66.58a1.8 1.8 0 0 1 0 1.74zm-.83-.08c.2-.22.32-.5.32-.79s-.11-.57-.32-.79c-.25-.2-.57-.3-.9-.28h-.5v2.14h.5c.33.02.65-.08.9-.28zM21.79 3.6s9.3 3.22 9.1 7.88v7.86s-9.3-3.21-9.1-7.86V3.6zM39.18 17.5a13.5 13.5 0 0 1 5.9-2v-2.45a11.95 11.95 0 0 0-5.9 4.45z"/><path fill="#afb1b8" d="M38.12 18.25a12.32 12.32 0 0 1 6.97-5.72v-7.1s-13.25 4.58-12.97 11.2v11.21s.6-.2 1.52-.59c0-.36 0-.72.04-1.08a11.35 11.35 0 0 1 4.44-7.93z"/><path fill="#afb1b8" d="M36.86 22.4c.07-.77.23-1.54.47-2.29a10.37 10.37 0 0 0-2.8 6.77c.74-.33 1.62-.74 2.54-1.23-.23-1.07-.3-2.16-.2-3.24zM37.4 22.45c-.1.98-.04 1.97.15 2.94 3.62-1.99 7.69-5.05 7.53-8.75v-.33c-2.58.27-5 1.3-6.88 2.95-.44 1.02-.71 2.1-.8 3.19z"/></svg>