<svg aria-hidden="true" style="position:absolute;width:0;height:0;overflow:hidden" xmlns="http://www.w3.org/2000/svg"><defs><symbol id="icon-Logo-1" viewBox="0 0 57 32"><path  d="M20.27 3.73 24 7.27h-6.93v17.16H35.2v-6.56l3.73 3.53V3.73H20.27zm14.77 13.72L24.44 7.42h10.6v10.03zm-3.3 4.47h-11.8V10.38h.83v10.76h10.98v.78zm-9.01 4.8-.44.9-.44-.9h-.36l.63 1.2v.7h.34v-.7l.63-1.2h-.36zm.54 1.9.16-.45h.73l.16.44h.34l-.72-1.9h-.3l-.7 1.9h.33zm.52-1.5.28.79h-.55l.28-.79zm1.74.74a.43.43 0 0 0-.07.24c0 .16.05.3.17.4s.26.14.45.14.35-.05.48-.15l.1.12h.38l-.28-.32c.1-.15.16-.35.16-.58h-.27c0 .13-.03.24-.08.35l-.37-.43.13-.1c.1-.06.16-.13.2-.2s.06-.13.06-.21c0-.12-.05-.22-.14-.3s-.2-.13-.33-.13c-.16 0-.28.05-.37.13s-.13.2-.13.36c0 .06 0 .12.04.18s.08.15.15.24c-.14.1-.23.19-.28.26zm.86.42c-.1.07-.2.1-.3.1-.1 0-.17-.02-.23-.07s-.09-.13-.09-.22c0-.1.06-.19.16-.27l.04-.03.41.5zm-.34-.84c-.1-.1-.14-.2-.14-.27s.02-.12.06-.16.08-.06.14-.06c.06 0 .1.01.15.05s.05.08.05.13c0 .07-.03.13-.08.18l-.04.03-.14.1zm3.08 1.03c.13-.11.2-.27.23-.47h-.33c-.02.13-.06.23-.13.29s-.16.09-.29.09c-.14 0-.25-.06-.32-.17s-.11-.26-.11-.47v-.16c0-.2.04-.36.12-.46s.18-.16.33-.16c.12 0 .22.03.28.09s.1.16.12.3h.33c-.02-.21-.1-.37-.23-.49s-.3-.17-.5-.17c-.16 0-.3.04-.41.11s-.21.18-.27.32c-.07.13-.1.3-.1.47v.18c0 .17.04.32.1.46s.15.23.26.3c.12.07.25.11.4.11.22 0 .4-.06.52-.17zm1.94-.26c.06-.15.1-.3.1-.5v-.1c0-.18-.04-.35-.1-.48s-.16-.25-.28-.32c-.12-.08-.26-.12-.41-.12s-.3.04-.41.12c-.12.07-.21.18-.28.32s-.1.3-.1.49v.1c0 .19.04.35.1.49s.16.24.28.32c.12.07.26.11.41.11.16 0 .3-.04.41-.11s.21-.18.28-.32zm-.35-1.07c.08.1.12.27.12.48v.1c0 .21-.04.37-.12.48s-.2.17-.34.17-.26-.06-.34-.17-.12-.27-.12-.48v-.11c0-.2.04-.36.12-.47s.2-.17.34-.17.26.05.34.17z"/></symbol><symbol id="icon-Logo-2" viewBox="0 0 57 32"><path  d="M26.73 3.17h-.08l-.33-.02h-.24a12.56 12.56 0 0 0-.7.02c-1.94.1-3.84.6-5.6 1.43l-.24.11v11.81l.54-.18a18.34 18.34 0 0 1 5.82-1.02v1.55l-.57.01h-.04A17.2 17.2 0 0 0 18 18.94V3.79c1.3-.75 2.7-1.32 4.15-1.69 1.28-.33 2.6-.5 3.91-.5h.23a11.19 11.19 0 0 1 2.74.35v1.53c-.62-.15-1.25-.24-1.89-.29h-.04l-.38-.02zm2.68 1.56a16.75 16.75 0 0 0 5.16-.49c1.38-.35 2.7-.87 3.96-1.55v14.88c-1.3.75-2.7 1.32-4.15 1.69-1.28.32-2.6.5-3.92.5-1 0-2-.11-2.96-.35V4.44a11.44 11.44 0 0 0 1.92.28zm7.57.11-.53.18a18.23 18.23 0 0 1-6.97 1l-.44-.03v12.15l.37.03a14.36 14.36 0 0 0 4.58-.41c.96-.24 1.88-.57 2.77-1l.23-.1V4.84zM19.06 24.11a.81.81 0 0 0-.6-.24.9.9 0 0 0-.35.07.8.8 0 0 0-.5.78v2.02c0 .15.02.29.08.42a.72.72 0 0 0 .48.41c.1.03.2.04.3.04a.86.86 0 0 0 .84-.85v-.22h-.53v.18l-.03.18a.32.32 0 0 1-.08.11.38.38 0 0 1-.22.08.27.27 0 0 1-.25-.11.48.48 0 0 1-.07-.27v-1.89c0-.1.02-.2.06-.3a.3.3 0 0 1 .26-.12c.05 0 .1 0 .13.02s.08.05.1.1c.07.07.1.16.1.26v.18h.52v-.2a.95.95 0 0 0-.24-.65zM22.2 24.09a.94.94 0 0 0-.92-.17c-.1.04-.2.1-.27.17a.82.82 0 0 0-.21.28.96.96 0 0 0-.08.4v1.94c0 .13.03.27.08.4.05.1.12.19.2.26.09.08.18.14.28.17a.91.91 0 0 0 .92-.17.85.85 0 0 0 .28-.66v-1.95a.94.94 0 0 0-.08-.39.87.87 0 0 0-.2-.28zm-.25 2.62a.36.36 0 0 1-.1.28.39.39 0 0 1-.5 0 .35.35 0 0 1-.1-.28v-1.95a.36.36 0 0 1 .1-.28.39.39 0 0 1 .5 0 .35.35 0 0 1 .1.29v1.94zM26.33 27.57V23.9h-.51l-.67 1.94-.68-1.94h-.5v3.67h.52v-2.23h.01l.51 1.58h.27l.51-1.58h.01v2.23h.53zM29.31 24.16a.73.73 0 0 0-.3-.2 1.17 1.17 0 0 0-.38-.06h-.78v3.67h.53v-1.43h.27c.16 0 .32-.03.47-.1a.87.87 0 0 0 .4-.6 2.54 2.54 0 0 0-.02-.95.78.78 0 0 0-.19-.33zm-.27 1.12c0 .06-.02.13-.05.19a.3.3 0 0 1-.13.13.54.54 0 0 1-.25.04h-.24V24.4h.27a.5.5 0 0 1 .24.05c.05.03.1.08.12.14.03.06.04.13.05.2v.5zM31.8 23.9h-.44l-.8 3.67h.52l.15-.79h.71l.16.8h.52l-.83-3.68zm-.5 2.38.27-1.33.26 1.33h-.52zM35.17 26.11l-.8-2.21h-.5v3.67h.52v-2.2h.01l.8 2.2h.5V23.9h-.53v2.21zM38.37 23.9l-.42 1.46h-.01l-.42-1.46h-.56l.72 2.12v1.55h.53v-1.55l.72-2.12h-.56zM17.6 28.61h.25v.7h.17v-.7h.25v-.14h-.67v.14zM19.72 28.46l-.33.86h.18l.07-.2h.34l.07.2h.2l-.35-.85h-.18zm-.03.52.12-.31.12.31h-.24zM21.82 29h.2v.11a.33.33 0 0 1-.2.08c-.04 0-.08 0-.1-.02l-.09-.07a.35.35 0 0 1-.06-.22c0-.19.08-.28.24-.28.05 0 .1 0 .13.03s.06.06.07.1l.17-.03c-.04-.17-.16-.25-.37-.25a.43.43 0 0 0-.3.1.41.41 0 0 0-.12.34c0 .11.04.23.11.32a.4.4 0 0 0 .33.12c.13 0 .26-.04.36-.13v-.34h-.37V29zM23.96 28.46h-.17v.86h.6v-.15h-.43v-.7zM25.77 28.46h-.17v.86h.17v-.85zM27.54 29.04l-.35-.57h-.17v.85h.16v-.56l.35.56h.17v-.85h-.16v.57zM29.14 28.94h.42v-.14h-.42v-.19h.46v-.14h-.63v.85h.65v-.15h-.48v-.23zM33.02 28.8h-.34v-.33h-.17v.85h.17v-.37h.34v.37h.17v-.85h-.17v.33zM34.63 28.94h.42v-.14h-.42v-.19h.46v-.14h-.63v.85h.64v-.15h-.47v-.23zM36.81 28.94c.15-.02.23-.1.23-.23a.2.2 0 0 0-.09-.2.48.48 0 0 0-.25-.04h-.36v.85h.17v-.36h.03c.04 0 .08 0 .11.02l.06.06.19.28h.2l-.1-.17a.6.6 0 0 0-.19-.2zm-.17-.12h-.13v-.2h.14c.06-.01.12 0 .17.01l.03.04.01.05-.01.05a.1.1 0 0 1-.04.03.49.49 0 0 1-.17.02zM38.46 28.94h.42v-.14h-.42v-.19h.46v-.14h-.63v.85h.64v-.15h-.47v-.23z"/></symbol><symbol id="icon-Logo-3" viewBox="0 0 57 32"><path  d="M19.42 26.19h.02l.02.01.12.12a.95.95 0 0 1-.33.2c-.15.06-.3.09-.46.08-.15 0-.3-.02-.44-.07a.94.94 0 0 1-.33-.2.88.88 0 0 1-.21-.3 1.02 1.02 0 0 1-.07-.4.91.91 0 0 1 .3-.7c.1-.1.22-.16.35-.2a1.39 1.39 0 0 1 .87-.02c.11.05.22.1.3.18l-.09.12-.02.02a.07.07 0 0 1-.04.01l-.04-.01-.06-.03-.07-.04a.82.82 0 0 0-.23-.07 1.11 1.11 0 0 0-.5.04.68.68 0 0 0-.42.39c-.03.1-.05.2-.05.3 0 .11.02.22.06.32a.69.69 0 0 0 .4.39c.1.03.2.05.3.05l.18-.01a.69.69 0 0 0 .38-.17.09.09 0 0 1 .06-.02zM22.78 25.63c0 .13-.03.27-.08.4-.05.1-.12.21-.22.3s-.22.15-.35.2c-.28.1-.6.1-.88 0a1.03 1.03 0 0 1-.34-.2.9.9 0 0 1-.22-.31c-.1-.26-.1-.53 0-.79a.94.94 0 0 1 .22-.3c.1-.1.21-.16.34-.2.28-.1.6-.1.88 0a.91.91 0 0 1 .64.9zm-.31 0c0-.1-.02-.21-.06-.32a.65.65 0 0 0-.4-.38c-.2-.07-.43-.07-.64 0a.68.68 0 0 0-.25.15.63.63 0 0 0-.15.23.93.93 0 0 0 0 .64.64.64 0 0 0 .4.38c.2.07.43.07.64 0a.66.66 0 0 0 .4-.38c.04-.1.06-.21.06-.32zM25.07 25.96l.03.07.03-.07a.68.68 0 0 1 .04-.07l.74-1.17.04-.04a.2.2 0 0 1 .06 0h.22v1.9h-.26v-1.53l-.74 1.2-.05.04a.14.14 0 0 1-.06.01h-.04L25 26.3a.1.1 0 0 1-.04-.05l-.77-1.2V26.57h-.25v-1.9h.22a.2.2 0 0 1 .06 0l.04.04.76 1.18.04.07zM27.86 25.86v.72h-.29v-1.9h.65c.12 0 .25 0 .36.04.1.02.19.06.26.12a.5.5 0 0 1 .14.18c.04.08.06.16.05.25a.55.55 0 0 1-.2.43.75.75 0 0 1-.26.13c-.12.03-.24.04-.35.04h-.36zm0-.2h.36a.8.8 0 0 0 .22-.03.52.52 0 0 0 .16-.08.36.36 0 0 0 .13-.29c.01-.05 0-.1-.02-.15s-.06-.1-.1-.13a.62.62 0 0 0-.4-.1h-.35v.78zM31.77 26.58h-.23a.1.1 0 0 1-.06-.01.12.12 0 0 1-.04-.05l-.2-.46h-1l-.2.46a.1.1 0 0 1-.1.06h-.23l.87-1.9h.3l.9 1.9zm-1.44-.7h.82l-.34-.78a1.28 1.28 0 0 1-.07-.18l-.03.1a.98.98 0 0 1-.03.08l-.35.77zM33.03 24.68l.04.04 1.28 1.43v-1.48h.25v1.91h-.2a.16.16 0 0 1-.05-.04l-1.27-1.44v1.48h-.26v-1.9H33.03zM36.75 25.82v.76h-.3v-.76l-.8-1.15h.26c.03 0 .05 0 .07.02l.04.04.5.74a1.32 1.32 0 0 1 .09.17l.03-.08a.74.74 0 0 1 .05-.09l.5-.74a.18.18 0 0 1 .04-.04.1.1 0 0 1 .06-.02h.26l-.8 1.15zM24.92 21.47l.39.04c1.96-.77 3.62-2.02 4.77-3.6s1.74-3.4 1.7-5.28l-2.17-1.87c.44 1.98.24 4.04-.6 5.93s-2.24 3.55-4.09 4.78z"/><path  d="m24.15 21.38.06.01c1.97-1.22 3.48-2.94 4.32-4.92s.98-4.13.4-6.18l-3.08-2.67c1.25 2.2 1.75 4.66 1.45 7.1s-1.4 4.74-3.15 6.66zM34.6 14.84a9.62 9.62 0 0 1-3.63 5.28c-.53.4-1.1.76-1.72 1.07 1.49-.38 2.86-1.05 4-1.97s2.03-2.04 2.6-3.3l-1.25-1.08z"/><path  d="m34.1 14.54-1.77-1.55c-.04 1.77-.61 3.49-1.67 4.99s-2.56 2.73-4.35 3.56c.4 0 .8-.02 1.2-.06 1.67-.6 3.15-1.54 4.3-2.75s1.94-2.65 2.3-4.19zM24.4 6.49 22.3 4.64c-1.9.64-3.53 1.76-4.68 3.21a8 8 0 0 0-1.78 4.95c0 1.95.76 3.84 2.15 5.38s3.32 2.63 5.5 3.1c1.94-2.06 3.08-4.6 3.25-7.26s-.65-5.3-2.32-7.53zM39 14.26c0-2.32-1.06-4.54-2.95-6.18s-4.44-2.56-7.1-2.56c-1.23 0-2.45.2-3.6.58l12.99 11.28c.44-1 .67-2.05.67-3.13z"/></symbol><symbol id="icon-Logo-4" viewBox="0 0 57 32"><path  d="M12.88 11.26c-1.28 0-2.32.92-2.32 2.05 0 1.14 1.04 2.06 2.32 2.06 1.28 0 2.31-.92 2.31-2.06 0-1.13-1.03-2.05-2.31-2.05zM29.97 10.6c0-1.58-.71-3.1-1.97-4.21s-2.95-1.75-4.73-1.75c-1.78 0-3.48.63-4.74 1.75s-1.96 2.63-1.97 4.2v8.71s13.4-1.32 13.41-8.7zM5.87 22.16c0 1.1.5 2.15 1.37 2.93s2.05 1.21 3.29 1.22c1.24 0 2.42-.44 3.3-1.22s1.36-1.83 1.36-2.93V16.1s-9.32.93-9.32 6.06zm4.66 1.09c-.24 0-.48-.07-.68-.19s-.36-.29-.45-.48c-.09-.2-.12-.42-.07-.63s.17-.4.34-.56c.17-.15.38-.25.62-.3s.48-.01.7.07c.23.08.42.22.56.4s.2.39.2.6a1 1 0 0 1-.36.77 1.29 1.29 0 0 1-.87.32zM19.96 22.65h-.9v.93h-.47V21.3h1.48v.38h-1.01v.59h.9v.38zm2.25-.16c0 .23-.04.42-.12.59a.9.9 0 0 1-.85.53c-.19 0-.35-.05-.5-.14s-.26-.22-.35-.39a1.34 1.34 0 0 1-.12-.58v-.1c0-.23.04-.43.12-.6a.9.9 0 0 1 .85-.53c.19 0 .36.05.5.14.15.09.27.22.35.4.08.16.12.36.12.58v.1zm-.48-.1c0-.24-.04-.42-.12-.55s-.21-.18-.37-.18a.42.42 0 0 0-.36.18.95.95 0 0 0-.13.54v.11c0 .23.04.41.12.54s.21.2.37.2.28-.07.37-.19c.08-.12.12-.3.12-.54v-.11zm2 .59a.24.24 0 0 0-.1-.2 1.2 1.2 0 0 0-.33-.15c-.16-.06-.3-.1-.39-.16-.25-.14-.38-.33-.38-.56 0-.13.03-.23.1-.33s.17-.17.3-.23c.13-.05.27-.08.43-.08.17 0 .31.03.44.09s.22.14.3.25.1.23.1.36h-.47c0-.1-.03-.18-.1-.24s-.15-.08-.27-.08c-.12 0-.2.02-.27.07a.23.23 0 0 0-.1.19c0 .07.04.14.12.19.07.05.18.1.33.14.26.08.46.18.58.3s.18.26.18.44c0 .2-.07.35-.22.46a.98.98 0 0 1-.6.17c-.18 0-.34-.03-.48-.1-.15-.06-.26-.15-.33-.26s-.11-.24-.11-.39h.47c0 .25.15.38.45.38.1 0 .2-.02.26-.07.06-.04.09-.1.09-.19zm2.5-1.3h-.7v1.9h-.46v-1.9h-.7v-.38h1.86v.38zm1.64.91h-.9v.61h1.06v.38H26.5V21.3h1.52v.38h-1.05v.54h.9v.37zm1.27.15h-.37v.84h-.47V21.3h.84c.27 0 .48.06.63.18s.22.3.22.51a.7.7 0 0 1-.1.39.69.69 0 0 1-.31.25l.5.93v.02h-.51l-.43-.84zm-.37-.38h.38c.11 0 .2-.03.27-.08.06-.06.1-.15.1-.25s-.03-.2-.1-.26c-.06-.06-.15-.09-.28-.09h-.37v.69zm2.84.41v.8h-.47V21.3h.89c.17 0 .32.03.45.1s.23.15.3.26c.07.12.1.25.1.4 0 .22-.08.4-.23.52a.95.95 0 0 1-.63.2h-.41zm0-.37h.42c.12 0 .22-.03.28-.1.07-.05.1-.13.1-.24 0-.11-.03-.2-.1-.27s-.16-.1-.27-.1h-.43v.7zm2.97.2h-.9v.6h1.05v.38h-1.52V21.3h1.52v.38h-1.05v.54h.9v.37zm2.17-.92h-.7v1.9h-.47v-1.9h-.68v-.38h1.85v.38zm1.64.91h-.9v.61h1.05v.38h-1.52V21.3h1.52v.38h-1.05v.54h.9v.37zm1.27.15h-.37v.84h-.47V21.3h.84c.27 0 .48.06.63.18s.22.3.22.51a.7.7 0 0 1-.1.39.69.69 0 0 1-.31.25l.49.93v.02h-.5l-.43-.84zm-.37-.38h.37c.12 0 .21-.03.28-.08.06-.06.1-.15.1-.25s-.04-.2-.1-.26c-.06-.06-.15-.09-.28-.09h-.37v.69zm2.75.62a.24.24 0 0 0-.1-.2 1.2 1.2 0 0 0-.33-.15c-.16-.06-.29-.1-.39-.16-.25-.14-.38-.33-.38-.56 0-.13.03-.23.1-.33s.17-.17.3-.23c.13-.05.27-.08.44-.08.16 0 .3.03.43.09s.23.14.3.25c.07.1.1.23.1.36h-.47c0-.1-.03-.18-.1-.24s-.15-.08-.27-.08c-.12 0-.2.02-.27.07a.23.23 0 0 0-.1.19c0 .07.04.14.12.19.07.05.18.1.33.14.26.08.46.18.58.3s.18.26.18.44c0 .2-.07.35-.22.46a.98.98 0 0 1-.6.17c-.18 0-.34-.03-.48-.1a.68.68 0 0 1-.44-.65h.47c0 .25.15.38.45.38.1 0 .2-.02.26-.07.06-.04.1-.1.1-.19z"/></symbol><symbol id="icon-Logo-5" viewBox="0 0 57 32"><path d="M14.27 23.86c.13.15.2.33.2.52 0 .12-.02.25-.07.36s-.14.22-.24.3a1.4 1.4 0 0 1-.88.24h-1.55v-3.3h1.52c.3-.02.6.06.84.22a.7.7 0 0 1 .3.62c0 .18-.06.35-.18.5a.84.84 0 0 1-.46.26c.2.03.39.13.52.28zm-1.82-.5h.65c.15.01.3-.03.41-.11.05-.04.1-.09.12-.15s.03-.11.02-.17c0-.06 0-.12-.03-.18s-.06-.1-.1-.14a.67.67 0 0 0-.43-.11h-.64v.86zm1.13 1.27c.05-.04.1-.1.12-.15s.04-.13.03-.19c0-.06 0-.13-.03-.18s-.07-.12-.12-.16a.71.71 0 0 0-.44-.12h-.68v.91h.68c.16.01.31-.03.44-.11zM17.37 25.28l-.84-1.3h-.32v1.3h-.73v-3.3h1.38c.34-.03.69.07.95.28.2.18.31.41.33.66s-.06.5-.22.7c-.17.18-.4.3-.66.34l.9 1.32h-.79zm-1.16-1.74h.6c.4 0 .61-.17.61-.5a.46.46 0 0 0-.15-.37.69.69 0 0 0-.47-.14h-.6l.01 1zM21.34 24.61h-1.45l-.25.67h-.76L20.2 22h.83l1.32 3.27h-.76l-.25-.67zm-.2-.5-.52-1.39-.53 1.4h1.05zM26.3 25.28h-.72l-1.61-2.25v2.25h-.72v-3.3h.72l1.61 2.25v-2.25h.73v3.3zM30.42 24.49a1.5 1.5 0 0 1-.66.58c-.3.14-.66.22-1 .2h-1.3v-3.3h1.3c.34 0 .69.07 1 .2.28.14.5.34.66.58a1.8 1.8 0 0 1 0 1.74zm-.83-.08c.2-.22.32-.5.32-.79s-.11-.57-.32-.79c-.25-.2-.57-.3-.9-.28h-.5v2.14h.5c.33.02.65-.08.9-.28zM21.79 3.6s9.3 3.22 9.1 7.88v7.86s-9.3-3.21-9.1-7.86V3.6zM39.18 17.5a13.5 13.5 0 0 1 5.9-2v-2.45a11.95 11.95 0 0 0-5.9 4.45z"/><path  d="M38.12 18.25a12.32 12.32 0 0 1 6.97-5.72v-7.1s-13.25 4.58-12.97 11.2v11.21s.6-.2 1.52-.59c0-.36 0-.72.04-1.08a11.35 11.35 0 0 1 4.44-7.93z"/><path  d="M36.86 22.4c.07-.77.23-1.54.47-2.29a10.37 10.37 0 0 0-2.8 6.77c.74-.33 1.62-.74 2.54-1.23-.23-1.07-.3-2.16-.2-3.24zM37.4 22.45c-.1.98-.04 1.97.15 2.94 3.62-1.99 7.69-5.05 7.53-8.75v-.33c-2.58.27-5 1.3-6.88 2.95-.44 1.02-.71 2.1-.8 3.19z"/></symbol><symbol id="icon-Logo-6" viewBox="0 0 57 32"><path  d="M28.5 14.62a1.58 1.58 0 0 1-.33-1.06v-1.54c0-.47.1-.83.32-1.08s.58-.36 1.1-.36c.5 0 .84.1 1.05.31.22.27.33.6.3.92v.36h-.87v-.36c0-.12 0-.24-.03-.36a.35.35 0 0 0-.12-.21.5.5 0 0 0-.32-.09.53.53 0 0 0-.33.09.41.41 0 0 0-.15.24c-.02.12-.03.25-.03.38v1.86c-.01.18.02.36.11.53.05.05.1.1.18.12s.15.04.22.03c.11 0 .23-.02.31-.08a.38.38 0 0 0 .13-.23c.02-.12.03-.25.03-.37v-.38h.87v.34c.03.35-.08.69-.3.97-.2.23-.54.34-1.05.34s-.88-.12-1.1-.37zM32.14 14.63c-.22-.24-.34-.59-.34-1.05v-1.61c0-.46.11-.8.34-1.04s.59-.35 1.1-.35c.52 0 .89.12 1.1.35.23.23.34.58.34 1.04v1.61c0 .46-.11.81-.33 1.05s-.6.36-1.1.36c-.51 0-.9-.12-1.11-.36zm1.51-.39a.9.9 0 0 0 .1-.47v-1.98a.88.88 0 0 0-.1-.47c-.04-.06-.1-.1-.17-.13s-.16-.04-.23-.03c-.08 0-.16 0-.24.03s-.13.07-.18.13a.85.85 0 0 0-.1.47v1.99c-.01.16.03.33.1.48.06.05.12.09.19.12s.15.04.22.04c.08 0 .16-.02.23-.05s.13-.06.18-.11v-.01zM35.73 10.63h.95l.7 2.98.73-2.98h.92l.09 4.3h-.68l-.07-2.99-.7 3h-.54l-.73-3.01-.07 3h-.68l.08-4.3zM40.18 10.63h1.46c.85 0 1.27.4 1.27 1.22 0 .78-.44 1.17-1.33 1.17h-.5v1.91h-.9v-4.3zm1.25 1.84a.7.7 0 0 0 .5-.14.7.7 0 0 0 .13-.49c0-.13-.01-.26-.05-.39 0-.04-.03-.08-.06-.11l-.12-.1a.94.94 0 0 0-.4-.06h-.35v1.29h.35zM44.22 10.63h.97l1 4.3h-.84l-.2-.99h-.87l-.2 1h-.86l1-4.31zm.83 2.81-.34-1.8-.34 1.8h.68zM47 10.63h.63l1.21 2.45v-2.45h.76v4.3H49l-1.23-2.56v2.56H47v-4.3zM51.36 13.3l-1.01-2.67h.85l.61 1.71.58-1.7h.83l-1 2.65v1.64h-.86V13.3zM29.9 16.82v.22h-.75v1.75h-.3v-1.75h-.75v-.22h1.8zM32.2 18.8h-.23a.1.1 0 0 1-.07-.03.1.1 0 0 1-.04-.04l-.21-.47h-1.03l-.21.47c0 .02-.02.04-.03.05a.11.11 0 0 1-.07.02h-.24l.9-1.98h.32l.92 1.97zm-1.5-.74h.86l-.36-.8a1.43 1.43 0 0 1-.06-.2l-.04.11-.03.09-.36.8zM33.77 18.6h.17a1.02 1.02 0 0 0 .28-.06l.12-.05v-.44h-.39l-.02-.02-.02-.01V17.85h.7v.75a1.4 1.4 0 0 1-.6.2l-.27.02c-.16 0-.31-.03-.46-.08a1.1 1.1 0 0 1-.36-.2.96.96 0 0 1-.23-.32.99.99 0 0 1-.09-.4c0-.15.03-.29.08-.42a.9.9 0 0 1 .24-.31c.1-.1.23-.16.36-.2a1.56 1.56 0 0 1 .74-.06 1.21 1.21 0 0 1 .55.23l-.08.12-.03.03h-.04l-.06-.01a1.34 1.34 0 0 1-.09-.05 1.17 1.17 0 0 0-.87-.06c-.1.04-.19.1-.26.16a.7.7 0 0 0-.17.25.92.92 0 0 0 0 .66.76.76 0 0 0 .45.4c.1.03.23.05.35.04zM36.66 18.57h.99v.22h-1.3v-1.97h.32l-.01 1.75zM38.68 18.8h-.31v-1.98h.3v1.97zM39.83 16.83c.02 0 .03.02.05.03l1.32 1.5a.4.4 0 0 1 0-.08v-1.47h.27v1.98h-.22a.18.18 0 0 1-.05-.05l-1.32-1.48V18.79h-.26v-1.97H39.83zM43.75 16.82v.21h-1.1v.66h.9v.2h-.9v.68h1.1v.22h-1.41v-1.97h1.41zM11.29 4.62l13.75 3.37V19.8L11.3 16.43V4.62zM10.4 3.6V17l15.52 3.8V7.42L10.4 3.62z"/><path  d="M18.72 27.04 3.2 23.23V9.83l15.52 3.8v13.4z"/><path  d="M10.66 4.46 24.24 7.8l-5.78 5L4.88 9.44l5.78-4.99zm-.26-.85L3.2 9.83l15.52 3.8 7.2-6.21L10.4 3.6zM19.6 26.28l6.32-5.46-6.33-1.56v7.02z"/></symbol></defs></svg>