<svg aria-hidden="true" style="position:absolute;width:0;height:0;overflow:hidden" xmlns="http://www.w3.org/2000/svg"><defs><symbol id="icon-icon-check" viewBox="0 0 34 32"><path fill="#2196f3" style="fill:var(--color1, #2196f3)" d="M4.27 0h25.6a4.27 4.27 0 0 1 4.26 4.27v23.46A4.27 4.27 0 0 1 29.87 32H4.27A4.27 4.27 0 0 1 0 27.73V4.27A4.27 4.27 0 0 1 4.27 0z"/><path fill="#fff" style="fill:var(--color2, #fff);stroke:var(--color2, #fff)" stroke="#fff" stroke-width=".43" d="m8.44 16.54-.14-.14-2.21 2.08 7.77 7.41 16.32-15.56-2.2-2.1L13.87 21.7l-5.42-5.16z"/></symbol><symbol id="icon-ramka" viewBox="0 0 34 32"><path d="M30.34 3.56v24.88H3.8V3.57h26.55zm0-3.56H3.8C1.71 0 0 1.6 0 3.56v24.88C0 30.4 1.7 32 3.8 32h26.54c2.09 0 3.8-1.6 3.8-3.56V3.56c0-1.96-1.71-3.56-3.8-3.56z"/></symbol></defs></svg>